<svg xmlns="http://www.w3.org/2000/svg" viewBox="0 0 80 80"><path d="M0,80H80V0H0Z" fill="#ff6729" fill-rule="evenodd"/><path d="M40,11.251l-8.037,11.5L26.875,19.2,34.912,7.7Z" fill="#fefefe" fill-rule="evenodd"/><path d="M50,11.251l-8.037,11.5L36.875,19.2,44.912,7.7Z" fill="#fefefe" fill-rule="evenodd"/><path d="M60,11.251l-8.037,11.5L46.875,19.2,54.912,7.7Z" fill="#fefefe" fill-rule="evenodd"/><path d="M23.058,32.542H19.066v4.2h3.84a2.85,2.85,0,0,0,1.722-.506,1.849,1.849,0,0,0,.786-1.584,1.918,1.918,0,0,0-.676-1.541A2.514,2.514,0,0,0,23.058,32.542Zm5.868,13.27H25.368a3,3,0,0,1-.315-.848,6.716,6.716,0,0,1-.119-1.441V42.4a3.7,3.7,0,0,0-.436-2.069,2.282,2.282,0,0,0-1.964-.748H19.066v6.228H15.794V29.77h7.722a5.776,5.776,0,0,1,3.6,1.078,3.948,3.948,0,0,1,1.549,3.323,4.74,4.74,0,0,1-.633,2.387,3.405,3.405,0,0,1-1.788,1.552A2.744,2.744,0,0,1,27.7,39.232a5.658,5.658,0,0,1,.567,2.905v.968a7.716,7.716,0,0,0,.1,1.375,1.247,1.247,0,0,0,.557.826Z" fill="#fefefe" fill-rule="evenodd"/><path d="M42.188,45.812H30.235V29.77H41.773v2.794h-8.31v3.411h7.612v2.773H33.463v4.115h8.725Z" fill="#fefefe" fill-rule="evenodd"/><path d="M56.039,45.812H52.658L46.18,34.787V45.812H42.951V29.77h3.4l6.479,11.046V29.77h3.206Z" fill="#fefefe" fill-rule="evenodd"/><path d="M69.891,32.674H65.179V45.812H61.885V32.674H57.2v-2.9h12.7Z" fill="#fefefe" fill-rule="evenodd"/><path d="M31.805,64.142H28.729V51.181L25.5,64.142H22.12L18.848,51.181V64.142H15.794V48.1h4.865l3.135,12.152L26.911,48.1l4.894,0Z" fill="#fefefe" fill-rule="evenodd"/><path d="M42.973,58.178l-2.247-6.865-2.2,6.865Zm5.388,5.964H44.915l-1.069-3.3H37.673l-1.069,3.3H33.179L38.851,48.1H42.6Z" fill="#fefefe" fill-rule="evenodd"/><path d="M62.409,64.142H59.028L52.549,53.117V64.142H49.321V48.1h3.4L59.2,59.146V48.1h3.207Z" fill="#fefefe" fill-rule="evenodd"/></svg>